<?xml version="1.0" encoding="utf-8"?>
<!-- Generator: Adobe Illustrator 16.0.3, SVG Export Plug-In . SVG Version: 6.00 Build 0)  -->
<!DOCTYPE svg PUBLIC "-//W3C//DTD SVG 1.1//EN" "http://www.w3.org/Graphics/SVG/1.1/DTD/svg11.dtd">
<svg version="1.1" id="Layer_1" xmlns="http://www.w3.org/2000/svg" xmlns:xlink="http://www.w3.org/1999/xlink" x="0px" y="0px"
	 width="402px" height="402px" viewBox="0 0 402 402" enable-background="new 0 0 402 402" xml:space="preserve">
<path fill="#FFFFFF" d="M351.701,325.848c-3.586-1.299-6.816-2.078-9.859-1.859c-3.043,0.217-8.248,0.674-8.732,4.121
	c-4.602-3.736-22.518-10.461-8.107-5.084c-17.57-5.959-28.689-9.719-9.65,1c-19.928-11.066-22.898-12.385-4.229-3.916
	c-19.084-8.518-20.297-9.035-7.084,0.559c-13.424-9.58-13.73-9.805-7.742,0c-6.092-9.805-6.146-9.84-8.131,0
	c1.895-9.84,1.756-9.717-8.469,0c10.063-9.717,9.102-9.176-8.762,0c17.426-9.174,14.258-7.926-7.166,0.084
	c20.398-7.902,11.092-4.727-7.545,1.396c8.297-2.826,9.318-3.383,7.035-2.764c-2.291,0.615-20.885-2.012-12.789,4.283
	c-9.34-4.789-10.02-2.908-2.305,5.246c-12.432-4.477-19.051-5.863-10.477,7.457c-11.25-11.256-12.414-9.912-7.363,4.928
	c-7.998-13.152-9.014-10.664-7.855,3.744c-4.537-13.113-6.105-9.805-8.23,2.385c-1.789-11.42-4.275-7.967-8.488,0.85
	c-0.254-8.805-3.275-7.25-8.594-1.514c0.52-7.088-3.967-4.563-8.688-2.096c0.158-4.469-0.336-7.795-5.385-5.986
	c1.869-4.883-3.357-3.033-6.615-1.514c0.247-4.1,4.068-9.813-1.201-9.602c3.403-4.082-3.195-2.898-7.799-0.898
	c3.666-2,3.686-0.26,2.326,2.313c-1.341,2.564-4.023,5.945-5.725,7.209c-2.78,1.955-5.729,3.625-8.785,5.002
	c-5.352,2.41-11.041-11.65-16.762,4.477c-5.721-3.902-11.473,8.291-16.949-1.225c-5.477-17.307-10.678-3.59-15.298-7.232
	c-2.31,1.113-4.475,2.693-6.456,1.512c-0.99-0.59-1.934-6.393-2.828-11.029c-0.893-12.721-1.736-21.002-2.523-4.025
	c-1.528-5.375-2.689-6.615-3.537-8.332c-0.424-17.779-0.768-6.49-1.041-14.918c-0.273-4.848-0.475,1.568-0.609,6.596
	c-0.271,11.891-1.816-2.227-2.843-4.85c-1.872,9.307-3.571,0.781-5.101-7.576c-0.765-3.662-1.486-7.43,2.135-10.898
	s-5.617,0.053-6.213,4.275c-0.893-3.803-1.689,4.186-2.391,1.805c3.805-1.539,4.6-2.518,5.928-4.104
	c7.672-4.998,10.672-12.998,16.672-18.998c-3,1-2,6-5,7c8-11,13-25,8-38c1,2,1,4,1,6c-1-11-9-22-20-25c1,1,4-1,4,2c-8-4-16-1-24,0h1
	c-5,4-9,12-6,19c1,1,3,2,4,3c-4-1-5-5-6-8c3,6,8,11,7,18c1,0,1-1,2-1c-4,2-8,4-13,4c6,3,14,3,19-2c-5,5-12,6-19,4c-15-5-20-22-19-36
	c-4,4-4,9-5,13c-1-22,18-41,38.385-45.396c1.879-1.002,3.074-1.875,3.809-2.756c1.145-1.718,1.934-3.451,2.384-5.274
	c0.901-3.646,0.452-7.644-1.867-11.29c-0.995-6.215-3.858-12.078-13.854-14.806c12.197,2.59,16.175,7.292,16.161,13.978
	c4.257-2.406,4.521-2.828,0.622-0.139c1.3-8.71-1.564-14.309-15.99-14.738c15.177,1.043,17.234,4.071,12.285,11.714
	c5.377-9.856,3.75-15.096-12.3-13.06c16.652-5.458,16.331-11.033-3.051-7.559c19.837-14.542,20.612-20.034,1.177-35.964
	c14.631,3.426,20.278,2.213,21.051-4.966c0.192-1.795,0.08-1.995-0.271-5.558c-0.354-13.146-0.945,0.894-1.715-9.852
	c1.703,13.209,2.998,15.239,3.945,11.67c0.946,7.428,1.543-7.663,1.849-3.803c0.306-9.045,0.32-16.119,0.103-2.189
	c-0.219,6.159-0.67-9.938-1.296-8.758c1.812-11.508,2.923-7.563,3.621,4.056c0.698,3.464,0.981-5.76,1.133-6.827
	c1.71-18.893,3.505,4.407,5.445-5.353c1.939,9.185,4.023-10.856,6.312-6.964c2.288-11.661,4.779-11.239,7.434-6.575
	c2.652-2.157,5.467-18.799,8.398-3.249c2.932-5.667,5.982,8.393,9.107-3.032c3.125,11.611,6.324,7.179,9.557,0.023
	c3.232-10.412,6.496-8.37,9.749-0.099c1.626,9.035,3.251-1.826,4.866-2.138c1.211-4.492,2.418-12.144,3.619-5.796
	c0.4,2.116,0.799,5.787,1.197,11.65c11.137,0.047,11.137,10.047,15.137,18.047c1-1,2-3,3-4c0,3-1,7,2,9c2-2,4-4,7-2c0-2-1-3-2-4
	c7,6,11,16,20,20c-4-2-4-6-8-8c2,2,3.75,4.25,5.75,6.25s4.25,3.75,7.244,4.75c-1.494-1.5-2.994-3.063-4.479-4.672
	c-4.453-4.828-8.766-10.078-12.516-15.328c3.5,4,6.75,9,10.625,13c1.938,2,4.031,3.75,6.391,5s4.979,2,7.979,2
	c-1.994-1-2.994-2-4.994-3c3,1,4.994,3,7.994,3c-1.494-3.5-3.744-6.75-5.994-10s-4.5-6.5-6-10c4,7,7,15,15,19c0-1-1-3-1-4
	c0,1,1,2,1,3c3-8,2-16,2-24c0,8,0,15,0,23c0-2,2-4,2-6c-1,2-1,3-1,5c8-7,11-17,17-25c-5,8-15,14-15,24c2-3,3-6,5-9c-2,2-3,5-4,8
	c-1-14,10-18,19-25c-7,6-7,17-14,23c-2-9,4-20,14-22c0,3-3,5-4,8c0-4,2-8,5.818-8.93c1.43-3.507,3.002-6.012,4.58-7.789
	c4.734-5.328,9.52-4.103,10.66-3.662c3.041-1.621,6.186-16.502,9.385-3.464c3.199,0.939,6.455-3.377,9.721-1.753
	c2.178,6.041,4.359,16.435,6.531-0.155c2.174,0.521,4.338,7.485,6.479,0.7c2.141-2.374,4.225,7.518,6.328,5.197
	c0.498,0.856,0.498,2.856,1.498,1.856c2-3,3-3,6-5c2,6,1,12,3,18c1-2,2-3,2-5c0,7-5,11-7,17l1-1c-1,2-2,3-2,5c5-6,8-16,16-18
	c11-3,10,16,16,17c4,1,6-7,8-12c0,4-3,7-4,10c2-8,6-14,9-21c-4,11-10,20-13,31c1-2,2-1,3,0c1,3-2,6-3,9c4,2,5,7,8,10c1,1,4,3,5,3
	c4-1,0-8,4-10c-4,1-8,3-12,4c7,5,17,8,21,17c-3-1-5-4-7-6c3,3,7,7,6.375,12.375c-0.188,2.313-0.906,4.469-2.391,6.297
	s-3.734,3.328-6.984,4.328c0-2,0-3-0.002-5c2.002,2-2.998,8,1.002,7c4,0,7-5,10-9c-5,7-10,16-9,25c-2-2-2-4-2-7c1,4,1,8,3,11
	c-1-7-2-14,3-20c-5,7-4,16-1,23c0-1,0-2,0-3c1,2,1,4,1,6c-1-4-2-8-3-12c1,9,5,17,15,14c-2,2-8-2-6,2s3,10.001,12,10.001
	c-3,0-6,1-8-2c0-1,0-2,1-3.001c1,4.001-2,8.001-1.18,12.284c-0.322,2.629-0.555,5.291-0.527,7.646
	c0.084,7.068,2.504,11.383,11.803,3.795c-18.594,15.475-19.453,17.402-4.541-0.844c-7.381,9.805-11.695,15.199-11.439,17.678
	c-0.285,2.723,4,2.594,12.74,1.838c-8.762,0.814-15.553,2.148-13.738,2.33c-2.871,1.9,2.74,2.887,9.414,6.447
	c-6.695-3.525-15.27-3.465-10.818-4.232c-5.82,2.584-0.928,5.242,4.559,12.418c-5.52-7.143-13.285-8.908-5.953-11.301
	c-4.119,1.219-6.227,2.645-6.064,4.5c0.162,1.857,1.973,6.18,7.557,7.088c-5.58-0.896-7.057-5.084-6.881-6.504
	c0.174-1.418,2.625-2.104,6.766-2.102c-2.893,1.613-1.703,3.781,0.914,6.984c2.352,3.689,2.09,13.797,9.492,13.18
	c-7.166,0.9-4.512-6.445-3.635-8.367c-0.988,0.941-1.049,3.701,2.227,3.322c-0.742,4.818-2.412,11.189,4.904,9.045
	c-4.486,7.557-4.703,11.109,4.402,8.795c-7.529,5.979-7.854,8.268,2.262,7.656c-9.346,4.516-9.887,6.586,0.834,7.85
	c-10.613,4.52-11.572,8.307-2.324,15.545c-11.586,0.041-11.922,4.469-7.166,14.121c-9.555-3.051-10.572,2.76-11.43,11.238
	C349.955,318.791,350.004,321.541,351.701,325.848z"/>
</svg>
