<?xml version="1.0" encoding="utf-8"?>
<!-- Generator: Adobe Illustrator 16.0.3, SVG Export Plug-In . SVG Version: 6.00 Build 0)  -->
<!DOCTYPE svg PUBLIC "-//W3C//DTD SVG 1.1//EN" "http://www.w3.org/Graphics/SVG/1.1/DTD/svg11.dtd">
<svg version="1.1" id="Layer_1" xmlns="http://www.w3.org/2000/svg" xmlns:xlink="http://www.w3.org/1999/xlink" x="0px" y="0px"
	 width="402px" height="402px" viewBox="0 0 402 402" enable-background="new 0 0 402 402" xml:space="preserve">
<g>
	<path fill="#3AB44A" d="M200.998,158.229c-10.399,0-18.83,8.431-18.83,18.831c0,6.83,3.635,12.81,9.074,16.112v29.722
		c0,5.389,4.37,9.757,9.756,9.757c5.391,0,9.758-4.368,9.758-9.757v-29.722c5.441-3.302,9.075-9.282,9.075-16.112
		C219.831,166.66,211.399,158.229,200.998,158.229z"/>
	<path fill="#3AB44A" d="M85.449,0v402l114.274-68.559L314.002,402h2.548V0H85.449z M156.831,112.545
		c0-24.395,19.775-44.167,44.166-44.167c24.397,0,44.171,19.773,44.171,44.167v35.734l-17.996-10.217v-25.517
		c0-14.454-11.718-26.17-26.174-26.17c-14.454,0-26.171,11.717-26.171,26.17v25.8l-17.996,10.217V112.545z M201,274.854
		c-49.689,0-59.668-113.676-59.668-113.676l3.061-1.745l12.438-7.095l13.71-7.821l4.285-2.444l12.566-7.167l5.522-3.149l8.086-4.612
		l13.607,7.761l12.564,7.167v-0.056l17.996,10.216v0.105l15.498,8.84C260.666,161.178,250.689,274.854,201,274.854z"/>
	<polygon fill="#FFFFFF" points="245.168,152.338 245.168,152.233 227.172,142.017 227.172,142.073 231.459,144.517 	"/>
	<polygon fill="#FFFFFF" points="193.034,131.964 192.915,131.756 187.393,134.906 174.827,142.073 170.542,144.517 
		156.831,152.338 144.393,159.433 144.454,159.542 	"/>
</g>
</svg>
